<svg xmlns="http://www.w3.org/2000/svg" width="256" height="256" viewBox="0 0 256 256" role="img" aria-labelledby="drawing-title"><title id="drawing-title">A warm sunflower medallion with ten balanced petals and two leaves</title><defs><linearGradient id="_dva__resource__stem__gradient__leaf-depth" gradientUnits="userSpaceOnUse" x1="121.6" y1="135.6" x2="134.4" y2="212.4"><stop offset="0%" stop-color="#72C66B" stop-opacity="1"/><stop offset="55%" stop-color="#2F8F54" stop-opacity="1"/><stop offset="100%" stop-color="#17623B" stop-opacity="1"/></linearGradient><linearGradient id="_dva__resource__leaf-left__leaf-template__leaf-blade__gradient__leaf-depth" gradientUnits="userSpaceOnUse" x1="62.2" y1="165.4" x2="119.8" y2="208.6"><stop offset="0%" stop-color="#72C66B" stop-opacity="1"/><stop offset="55%" stop-color="#2F8F54" stop-opacity="1"/><stop offset="100%" stop-color="#17623B" stop-opacity="1"/></linearGradient><linearGradient id="_dva__resource__leaf-right__leaf-template__leaf-blade__gradient__leaf-depth" gradientUnits="userSpaceOnUse" x1="62.2" y1="165.4" x2="119.8" y2="208.6"><stop offset="0%" stop-color="#72C66B" stop-opacity="1"/><stop offset="55%" stop-color="#2F8F54" stop-opacity="1"/><stop offset="100%" stop-color="#17623B" stop-opacity="1"/></linearGradient><linearGradient id="_dva__resource__petal-ring__0__petal-template__petal-shape__gradient__petal-sunrise" gradientUnits="userSpaceOnUse" x1="128" y1="25" x2="128" y2="113"><stop offset="0%" stop-color="#FFE48A" stop-opacity="1"/><stop offset="58%" stop-color="#F9B83A" stop-opacity="1"/><stop offset="100%" stop-color="#E88924" stop-opacity="1"/></linearGradient><linearGradient id="_dva__resource__petal-ring__1__petal-template__petal-shape__gradient__petal-sunrise" gradientUnits="userSpaceOnUse" x1="128" y1="25" x2="128" y2="113"><stop offset="0%" stop-color="#FFE48A" stop-opacity="1"/><stop offset="58%" stop-color="#F9B83A" stop-opacity="1"/><stop offset="100%" stop-color="#E88924" stop-opacity="1"/></linearGradient><linearGradient id="_dva__resource__petal-ring__2__petal-template__petal-shape__gradient__petal-sunrise" gradientUnits="userSpaceOnUse" x1="128" y1="25" x2="128" y2="113"><stop offset="0%" stop-color="#FFE48A" stop-opacity="1"/><stop offset="58%" stop-color="#F9B83A" stop-opacity="1"/><stop offset="100%" stop-color="#E88924" stop-opacity="1"/></linearGradient><linearGradient id="_dva__resource__petal-ring__3__petal-template__petal-shape__gradient__petal-sunrise" gradientUnits="userSpaceOnUse" x1="128" y1="25" x2="128" y2="113"><stop offset="0%" stop-color="#FFE48A" stop-opacity="1"/><stop offset="58%" stop-color="#F9B83A" stop-opacity="1"/><stop offset="100%" stop-color="#E88924" stop-opacity="1"/></linearGradient><linearGradient id="_dva__resource__petal-ring__4__petal-template__petal-shape__gradient__petal-sunrise" gradientUnits="userSpaceOnUse" x1="128" y1="25" x2="128" y2="113"><stop offset="0%" stop-color="#FFE48A" stop-opacity="1"/><stop offset="58%" stop-color="#F9B83A" stop-opacity="1"/><stop offset="100%" stop-color="#E88924" stop-opacity="1"/></linearGradient><linearGradient id="_dva__resource__petal-ring__5__petal-template__petal-shape__gradient__petal-sunrise" gradientUnits="userSpaceOnUse" x1="128" y1="25" x2="128" y2="113"><stop offset="0%" stop-color="#FFE48A" stop-opacity="1"/><stop offset="58%" stop-color="#F9B83A" stop-opacity="1"/><stop offset="100%" stop-color="#E88924" stop-opacity="1"/></linearGradient><linearGradient id="_dva__resource__petal-ring__6__petal-template__petal-shape__gradient__petal-sunrise" gradientUnits="userSpaceOnUse" x1="128" y1="25" x2="128" y2="113"><stop offset="0%" stop-color="#FFE48A" stop-opacity="1"/><stop offset="58%" stop-color="#F9B83A" stop-opacity="1"/><stop offset="100%" stop-color="#E88924" stop-opacity="1"/></linearGradient><linearGradient id="_dva__resource__petal-ring__7__petal-template__petal-shape__gradient__petal-sunrise" gradientUnits="userSpaceOnUse" x1="128" y1="25" x2="128" y2="113"><stop offset="0%" stop-color="#FFE48A" stop-opacity="1"/><stop offset="58%" stop-color="#F9B83A" stop-opacity="1"/><stop offset="100%" stop-color="#E88924" stop-opacity="1"/></linearGradient><linearGradient id="_dva__resource__petal-ring__8__petal-template__petal-shape__gradient__petal-sunrise" gradientUnits="userSpaceOnUse" x1="128" y1="25" x2="128" y2="113"><stop offset="0%" stop-color="#FFE48A" stop-opacity="1"/><stop offset="58%" stop-color="#F9B83A" stop-opacity="1"/><stop offset="100%" stop-color="#E88924" stop-opacity="1"/></linearGradient><linearGradient id="_dva__resource__petal-ring__9__petal-template__petal-shape__gradient__petal-sunrise" gradientUnits="userSpaceOnUse" x1="128" y1="25" x2="128" y2="113"><stop offset="0%" stop-color="#FFE48A" stop-opacity="1"/><stop offset="58%" stop-color="#F9B83A" stop-opacity="1"/><stop offset="100%" stop-color="#E88924" stop-opacity="1"/></linearGradient><radialGradient id="_dva__resource__center-disk__gradient__center-glow" gradientUnits="userSpaceOnUse" cx="46" cy="42" fx="34" fy="30" r="70" gradientTransform="translate(92 77) scale(0.72 0.72)"><stop offset="0%" stop-color="#F6C453" stop-opacity="1"/><stop offset="62%" stop-color="#A95D24" stop-opacity="1"/><stop offset="100%" stop-color="#713719" stop-opacity="1"/></radialGradient><filter id="_dva__resource__center-ring__effect__soft-lift" filterUnits="userSpaceOnUse" x="51" y="32" width="154" height="162" color-interpolation-filters="sRGB"><feDropShadow dx="0" dy="4" stdDeviation="5" flood-color="#56321B" flood-opacity="0.28"/></filter></defs><rect id="canvas-background" x="0" y="0" width="256" height="256" fill="#FFF8E7"/><rect id="stem" transform="matrix(0.999 0.035 -0.035 0.999 7.826 -4.332)" fill="url(#_dva__resource__stem__gradient__leaf-depth)" stroke="#17623B" stroke-width="2" opacity="1" stroke-linecap="round" stroke-linejoin="round" x="120" y="126" width="16" height="96" rx="8" ry="8"/><g id="leaf-left" data-source="leaf-template" transform="matrix(0.964 -0.313 0.313 0.964 -60.671 47.14)"><g id="leaf-left__leaf-template"><path id="leaf-left__leaf-template__leaf-blade" fill="url(#_dva__resource__leaf-left__leaf-template__leaf-blade__gradient__leaf-depth)" stroke="#17623B" stroke-width="2" opacity="1" stroke-linecap="round" stroke-linejoin="round" d="M 127 189.7 C 109.72 173.5 75.16 165.4 55 184.3 C 75.16 203.2 109.72 205.9 127 189.7 Z" fill-rule="nonzero"/></g></g><g id="leaf-right" data-source="leaf-template" transform="matrix(-0.964 -0.313 -0.313 0.964 319.977 35.867)"><g id="leaf-right__leaf-template"><path id="leaf-right__leaf-template__leaf-blade" fill="url(#_dva__resource__leaf-right__leaf-template__leaf-blade__gradient__leaf-depth)" stroke="#17623B" stroke-width="2" opacity="1" stroke-linecap="round" stroke-linejoin="round" d="M 127 189.7 C 109.72 173.5 75.16 165.4 55 184.3 C 75.16 203.2 109.72 205.9 127 189.7 Z" fill-rule="nonzero"/></g></g><g id="petal-ring" data-source="petal-template"><g id="petal-ring__0" data-source="petal-template"><g id="petal-ring__0__petal-template"><path id="petal-ring__0__petal-template__petal-shape" fill="url(#_dva__resource__petal-ring__0__petal-template__petal-shape__gradient__petal-sunrise)" stroke="#56321B" stroke-width="2" opacity="1" stroke-linecap="round" stroke-linejoin="round" d="M 128 113 C 119.432 109.48 115.148 92.76 115.148 73.4 C 115.148 52.28 120.86 25 128 25 C 135.14 25 140.852 52.28 140.852 73.4 C 140.852 92.76 136.568 109.48 128 113 Z" fill-rule="nonzero"/></g></g><g id="petal-ring__1" data-source="petal-template" transform="matrix(0.809 0.588 -0.588 0.809 90.866 -53.655)"><g id="petal-ring__1__petal-template"><path id="petal-ring__1__petal-template__petal-shape" fill="url(#_dva__resource__petal-ring__1__petal-template__petal-shape__gradient__petal-sunrise)" stroke="#56321B" stroke-width="2" opacity="1" stroke-linecap="round" stroke-linejoin="round" d="M 128 113 C 119.432 109.48 115.148 92.76 115.148 73.4 C 115.148 52.28 120.86 25 128 25 C 135.14 25 140.852 52.28 140.852 73.4 C 140.852 92.76 136.568 109.48 128 113 Z" fill-rule="nonzero"/></g></g><g id="petal-ring__2" data-source="petal-template" transform="matrix(0.309 0.951 -0.951 0.309 195.915 -43.654)"><g id="petal-ring__2__petal-template"><path id="petal-ring__2__petal-template__petal-shape" fill="url(#_dva__resource__petal-ring__2__petal-template__petal-shape__gradient__petal-sunrise)" stroke="#56321B" stroke-width="2" opacity="1" stroke-linecap="round" stroke-linejoin="round" d="M 128 113 C 119.432 109.48 115.148 92.76 115.148 73.4 C 115.148 52.28 120.86 25 128 25 C 135.14 25 140.852 52.28 140.852 73.4 C 140.852 92.76 136.568 109.48 128 113 Z" fill-rule="nonzero"/></g></g><g id="petal-ring__3" data-source="petal-template" transform="matrix(-0.309 0.951 -0.951 -0.309 275.024 26.184)"><g id="petal-ring__3__petal-template"><path id="petal-ring__3__petal-template__petal-shape" fill="url(#_dva__resource__petal-ring__3__petal-template__petal-shape__gradient__petal-sunrise)" stroke="#56321B" stroke-width="2" opacity="1" stroke-linecap="round" stroke-linejoin="round" d="M 128 113 C 119.432 109.48 115.148 92.76 115.148 73.4 C 115.148 52.28 120.86 25 128 25 C 135.14 25 140.852 52.28 140.852 73.4 C 140.852 92.76 136.568 109.48 128 113 Z" fill-rule="nonzero"/></g></g><g id="petal-ring__4" data-source="petal-template" transform="matrix(-0.809 0.588 -0.588 -0.809 297.974 129.182)"><g id="petal-ring__4__petal-template"><path id="petal-ring__4__petal-template__petal-shape" fill="url(#_dva__resource__petal-ring__4__petal-template__petal-shape__gradient__petal-sunrise)" stroke="#56321B" stroke-width="2" opacity="1" stroke-linecap="round" stroke-linejoin="round" d="M 128 113 C 119.432 109.48 115.148 92.76 115.148 73.4 C 115.148 52.28 120.86 25 128 25 C 135.14 25 140.852 52.28 140.852 73.4 C 140.852 92.76 136.568 109.48 128 113 Z" fill-rule="nonzero"/></g></g><g id="petal-ring__5" data-source="petal-template" transform="matrix(-1 0 0 -1 256 226)"><g id="petal-ring__5__petal-template"><path id="petal-ring__5__petal-template__petal-shape" fill="url(#_dva__resource__petal-ring__5__petal-template__petal-shape__gradient__petal-sunrise)" stroke="#56321B" stroke-width="2" opacity="1" stroke-linecap="round" stroke-linejoin="round" d="M 128 113 C 119.432 109.48 115.148 92.76 115.148 73.4 C 115.148 52.28 120.86 25 128 25 C 135.14 25 140.852 52.28 140.852 73.4 C 140.852 92.76 136.568 109.48 128 113 Z" fill-rule="nonzero"/></g></g><g id="petal-ring__6" data-source="petal-template" transform="matrix(-0.809 -0.588 0.588 -0.809 165.134 279.655)"><g id="petal-ring__6__petal-template"><path id="petal-ring__6__petal-template__petal-shape" fill="url(#_dva__resource__petal-ring__6__petal-template__petal-shape__gradient__petal-sunrise)" stroke="#56321B" stroke-width="2" opacity="1" stroke-linecap="round" stroke-linejoin="round" d="M 128 113 C 119.432 109.48 115.148 92.76 115.148 73.4 C 115.148 52.28 120.86 25 128 25 C 135.14 25 140.852 52.28 140.852 73.4 C 140.852 92.76 136.568 109.48 128 113 Z" fill-rule="nonzero"/></g></g><g id="petal-ring__7" data-source="petal-template" transform="matrix(-0.309 -0.951 0.951 -0.309 60.085 269.654)"><g id="petal-ring__7__petal-template"><path id="petal-ring__7__petal-template__petal-shape" fill="url(#_dva__resource__petal-ring__7__petal-template__petal-shape__gradient__petal-sunrise)" stroke="#56321B" stroke-width="2" opacity="1" stroke-linecap="round" stroke-linejoin="round" d="M 128 113 C 119.432 109.48 115.148 92.76 115.148 73.4 C 115.148 52.28 120.86 25 128 25 C 135.14 25 140.852 52.28 140.852 73.4 C 140.852 92.76 136.568 109.48 128 113 Z" fill-rule="nonzero"/></g></g><g id="petal-ring__8" data-source="petal-template" transform="matrix(0.309 -0.951 0.951 0.309 -19.024 199.816)"><g id="petal-ring__8__petal-template"><path id="petal-ring__8__petal-template__petal-shape" fill="url(#_dva__resource__petal-ring__8__petal-template__petal-shape__gradient__petal-sunrise)" stroke="#56321B" stroke-width="2" opacity="1" stroke-linecap="round" stroke-linejoin="round" d="M 128 113 C 119.432 109.48 115.148 92.76 115.148 73.4 C 115.148 52.28 120.86 25 128 25 C 135.14 25 140.852 52.28 140.852 73.4 C 140.852 92.76 136.568 109.48 128 113 Z" fill-rule="nonzero"/></g></g><g id="petal-ring__9" data-source="petal-template" transform="matrix(0.809 -0.588 0.588 0.809 -41.974 96.818)"><g id="petal-ring__9__petal-template"><path id="petal-ring__9__petal-template__petal-shape" fill="url(#_dva__resource__petal-ring__9__petal-template__petal-shape__gradient__petal-sunrise)" stroke="#56321B" stroke-width="2" opacity="1" stroke-linecap="round" stroke-linejoin="round" d="M 128 113 C 119.432 109.48 115.148 92.76 115.148 73.4 C 115.148 52.28 120.86 25 128 25 C 135.14 25 140.852 52.28 140.852 73.4 C 140.852 92.76 136.568 109.48 128 113 Z" fill-rule="nonzero"/></g></g></g><ellipse id="center-disk" fill="url(#_dva__resource__center-disk__gradient__center-glow)" stroke="#56321B" stroke-width="2" opacity="1" stroke-linecap="round" stroke-linejoin="round" cx="128" cy="113" rx="36" ry="36"/><path id="center-ring" fill="#713719" stroke="none" stroke-width="0" opacity="0.9" stroke-linecap="round" stroke-linejoin="round" filter="url(#_dva__resource__center-ring__effect__soft-lift)" d="M 128 67 C 153.405 67 174 87.595 174 113 C 174 138.405 153.405 159 128 159 C 102.595 159 82 138.405 82 113 C 82 87.595 102.595 67 128 67 Z M 128 89.08 C 114.789 89.08 104.08 99.789 104.08 113 C 104.08 126.211 114.789 136.92 128 136.92 C 141.211 136.92 151.92 126.211 151.92 113 C 151.92 99.789 141.211 89.08 128 89.08 Z" fill-rule="evenodd"/></svg>
