<svg xmlns="http://www.w3.org/2000/svg" width="256" height="256" viewBox="0 0 256 256" role="img" aria-labelledby="drawing-title"><title id="drawing-title">Draw a friendly orange fox head icon with large triangular ears, a cream muzzle, and balanced dark eyes.</title><rect id="canvas-background" x="0" y="0" width="256" height="256" fill="#FFF7ED"/><ellipse id="ground-shadow" fill="#FED7AA" stroke="none" stroke-width="0" opacity="0.75" stroke-linecap="round" stroke-linejoin="round" cx="128" cy="228" rx="60" ry="6"/><polygon id="left-ear" fill="#F97316" stroke="#292524" stroke-width="5" opacity="1" stroke-linecap="round" stroke-linejoin="round" points="56.8,100.68 70.8,25 124,92.08"/><polygon id="right-ear" transform="translate(334 0) scale(-1 1)" fill="#F97316" stroke="#292524" stroke-width="5" opacity="1" stroke-linecap="round" stroke-linejoin="round" points="134.8,100.68 148.8,25 202,92.08"/><ellipse id="head" fill="#F97316" stroke="#292524" stroke-width="5" opacity="1" stroke-linecap="round" stroke-linejoin="round" cx="128" cy="139" rx="80" ry="85"/><polygon id="left-inner-ear" fill="#FFEDD5" stroke="none" stroke-width="0" opacity="1" stroke-linecap="round" stroke-linejoin="round" points="69.6,97 78.4,43 108,89.98"/><polygon id="right-inner-ear" transform="translate(336 0) scale(-1 1)" fill="#FFEDD5" stroke="none" stroke-width="0" opacity="1" stroke-linecap="round" stroke-linejoin="round" points="149.6,97 158.4,43 188,89.98"/><ellipse id="left-muzzle" fill="#FFEDD5" stroke="none" stroke-width="0" opacity="1" stroke-linecap="round" stroke-linejoin="round" cx="102" cy="162.5" rx="33" ry="32.5"/><ellipse id="right-muzzle" transform="translate(308 0) scale(-1 1)" fill="#FFEDD5" stroke="none" stroke-width="0" opacity="1" stroke-linecap="round" stroke-linejoin="round" cx="154" cy="162.5" rx="33" ry="32.5"/><ellipse id="left-eye" fill="#292524" stroke="none" stroke-width="0" opacity="1" stroke-linecap="round" stroke-linejoin="round" cx="93" cy="118.5" rx="7" ry="10.5"/><ellipse id="right-eye" transform="translate(326 0) scale(-1 1)" fill="#292524" stroke="none" stroke-width="0" opacity="1" stroke-linecap="round" stroke-linejoin="round" cx="163" cy="118.5" rx="7" ry="10.5"/><ellipse id="nose" fill="#292524" stroke="none" stroke-width="0" opacity="1" stroke-linecap="round" stroke-linejoin="round" cx="128" cy="157.5" rx="12" ry="8.5"/><path id="left-smile" fill="none" stroke="#292524" stroke-width="3" opacity="1" stroke-linecap="round" stroke-linejoin="round" d="M 129 158 C 128.25 169 113.5 171.75 104 171.75" fill-rule="nonzero"/><path id="right-smile" transform="translate(279 0) scale(-1 1)" fill="none" stroke="#292524" stroke-width="3" opacity="1" stroke-linecap="round" stroke-linejoin="round" d="M 152 158 C 151.25 169 136.5 171.75 127 171.75" fill-rule="nonzero"/></svg>
