<svg xmlns="http://www.w3.org/2000/svg" width="256" height="256" viewBox="0 0 256 256" role="img" aria-labelledby="drawing-title"><title id="drawing-title">A cheerful coral rocket launching through a navy night sky</title><defs><clipPath id="clip-body-highlight"><path id="clip-shape-body-highlight" fill="#fff" stroke="none" d="M 128 20 C 149.6 20 171.2 75.04 171.2 116.32 C 171.2 147.28 165.2 185.12 148.4 192 L 107.6 192 C 90.8 185.12 84.8 147.28 84.8 116.32 C 84.8 75.04 106.4 20 128 20 Z" fill-rule="nonzero"/></clipPath></defs><rect id="canvas-background" x="0" y="0" width="256" height="256" fill="#111827"/><g id="stars"><ellipse id="star-one" fill="#F8FAFC" stroke="none" stroke-width="0" opacity="1" stroke-linecap="round" stroke-linejoin="round" cx="37.1" cy="36" rx="5.4" ry="4.56"/><ellipse id="star-two" fill="#FDBA74" stroke="none" stroke-width="0" opacity="1" stroke-linecap="round" stroke-linejoin="round" cx="50.9" cy="36" rx="3.6" ry="3.12"/><ellipse id="star-three" fill="#F8FAFC" stroke="none" stroke-width="0" opacity="1" stroke-linecap="round" stroke-linejoin="round" cx="63.8" cy="36" rx="4.5" ry="3.84"/></g><rect id="launch-pad" fill="#334155" stroke="none" stroke-width="0" opacity="1" stroke-linecap="round" stroke-linejoin="round" x="36" y="222" width="184" height="12"/><polygon id="flame-outer" fill="#F97362" stroke="#172554" stroke-width="3" opacity="1" stroke-linecap="round" stroke-linejoin="round" points="102,181 154,181 139.44,229 128,215.56 116.56,229"/><polygon id="flame-inner" fill="#FACC15" stroke="none" stroke-width="0" opacity="1" stroke-linecap="round" stroke-linejoin="round" points="116,188 140,188 128,222"/><path id="left-fin" fill="#F97362" stroke="#172554" stroke-width="3" opacity="1" stroke-linecap="round" stroke-linejoin="round" d="M 112 126 L 77.2 148.8 C 65.2 162.48 55 183.76 52 202 L 112 183.76 L 112 126 Z" fill-rule="nonzero"/><path id="right-fin" transform="translate(348 0) scale(-1 1)" fill="#F97362" stroke="#172554" stroke-width="3" opacity="1" stroke-linecap="round" stroke-linejoin="round" d="M 204 126 L 169.2 148.8 C 157.2 162.48 147 183.76 144 202 L 204 183.76 L 204 126 Z" fill-rule="nonzero"/><path id="rocket-body" fill="#F97362" stroke="#172554" stroke-width="4" opacity="1" stroke-linecap="round" stroke-linejoin="round" d="M 128 20 C 149.6 20 171.2 75.04 171.2 116.32 C 171.2 147.28 165.2 185.12 148.4 192 L 107.6 192 C 90.8 185.12 84.8 147.28 84.8 116.32 C 84.8 75.04 106.4 20 128 20 Z" fill-rule="nonzero"/><g id="body-highlight" clip-path="url(#clip-body-highlight)"><ellipse id="highlight-shape" fill="#FDBA74" stroke="none" stroke-width="0" opacity="0.7" stroke-linecap="round" stroke-linejoin="round" cx="155.6" cy="99.12" rx="19.2" ry="67.08"/></g><ellipse id="porthole" fill="#7DD3FC" stroke="#172554" stroke-width="4" opacity="1" stroke-linecap="round" stroke-linejoin="round" cx="128" cy="78" rx="21" ry="21"/><rect id="body-band" fill="#F8FAFC" stroke="#172554" stroke-width="3" opacity="1" stroke-linecap="round" stroke-linejoin="round" x="94" y="132" width="68" height="16" rx="5.76" ry="5.76"/><line id="body-seam" fill="none" stroke="#172554" stroke-width="2" opacity="1" stroke-linecap="round" stroke-linejoin="round" x1="105" y1="140" x2="151" y2="140"/></svg>
