<svg xmlns="http://www.w3.org/2000/svg" width="256" height="256" viewBox="0 0 256 256" role="img" aria-labelledby="drawing-title"><title id="drawing-title">Draw a warm cream coffee mug with a teal handle, three simple steam curls, and a small leaf emblem.</title><rect id="canvas-background" x="0" y="0" width="256" height="256" fill="#ECFDF5"/><ellipse id="ground-shadow" fill="#A7F3D0" stroke="none" stroke-width="0" opacity="0.75" stroke-linecap="round" stroke-linejoin="round" cx="128" cy="224" rx="79" ry="9"/><ellipse id="handle-outer" fill="#14B8A6" stroke="#292524" stroke-width="5" opacity="1" stroke-linecap="round" stroke-linejoin="round" cx="193" cy="142" rx="40" ry="43"/><ellipse id="handle-opening" fill="#ECFDF5" stroke="none" stroke-width="0" opacity="1" stroke-linecap="round" stroke-linejoin="round" cx="192.5" cy="142" rx="21.5" ry="25"/><rect id="mug-body" fill="#FFF7ED" stroke="#292524" stroke-width="5" opacity="1" stroke-linecap="round" stroke-linejoin="round" x="49" y="82" width="132" height="132" rx="23.76" ry="23.76"/><ellipse id="coffee-surface" fill="#78350F" stroke="#292524" stroke-width="5" opacity="1" stroke-linecap="round" stroke-linejoin="round" cx="115" cy="91" rx="58" ry="17"/><path id="left-leaf" fill="#14B8A6" stroke="#0F766E" stroke-width="2" opacity="1" stroke-linecap="round" stroke-linejoin="round" d="M 120 174 C 108.24 172.48 92 155.76 92 136 C 106.56 136 118.88 158.04 120 174 L 120 174 Z" fill-rule="nonzero"/><path id="right-leaf" transform="translate(300 0) scale(-1 1)" fill="#14B8A6" stroke="#0F766E" stroke-width="2" opacity="1" stroke-linecap="round" stroke-linejoin="round" d="M 164 174 C 152.24 172.48 136 155.76 136 136 C 150.56 136 162.88 158.04 164 174 L 164 174 Z" fill-rule="nonzero"/><line id="leaf-stem" fill="none" stroke="#0F766E" stroke-width="3" opacity="1" stroke-linecap="round" stroke-linejoin="round" x1="128" y1="182" x2="128" y2="151"/><path id="left-steam" fill="none" stroke="#0F766E" stroke-width="4" opacity="1" stroke-linecap="round" stroke-linejoin="round" d="M 86 68 C 73.68 57.25 73.68 57.25 86 46.5 C 98.32 35.75 98.32 35.75 86 25" fill-rule="nonzero"/><path id="center-steam" fill="none" stroke="#0F766E" stroke-width="4" opacity="1" stroke-linecap="round" stroke-linejoin="round" d="M 128 68 C 115.68 55.25 115.68 55.25 128 42.5 C 140.32 29.75 140.32 29.75 128 17" fill-rule="nonzero"/><path id="right-steam" fill="none" stroke="#0F766E" stroke-width="4" opacity="1" stroke-linecap="round" stroke-linejoin="round" d="M 170 68 C 157.68 57.25 157.68 57.25 170 46.5 C 182.32 35.75 182.32 35.75 170 25" fill-rule="nonzero"/></svg>
